<?xml version="1.0" encoding="UTF-8"?>
<svg xmlns="http://www.w3.org/2000/svg" viewBox="0 0 90 97.12">
    <path
        d="M37.79,39.55c0-.82-.1-1.43-.29-1.82s-.62-.95-1.27-1.69l.06-.45c2.29-1.34,5.15-2.01,8.57-2.01,1.34,0,2.34.11,2.98.32.22.43.32,1.33.32,2.69s-1.04,6.24-3.11,14.64c.95.39,2.03.58,3.24.58,2.08,0,3.79-.71,5.13-2.14,1.34-1.43,2.22-2.97,2.63-4.64.41-1.67.62-3.43.62-5.29,0-3.42-.92-5.89-2.76-7.43-1.84-1.54-4.81-2.3-8.92-2.3-5.37,0-9.82,1.08-13.37,3.25-3.55,2.16-5.32,4.44-5.32,6.81,0,1.21.46,2.2,1.4,2.95.93.76,1.89,1.27,2.89,1.53-.17,1.56-.71,3.16-1.62,4.8-1.65-.22-3.21-1.08-4.71-2.6-1.49-1.52-2.24-3.51-2.24-5.97,0-4.41,2.47-7.96,7.4-10.64s10.69-4.02,17.26-4.02,11.55,1.09,14.93,3.28c3.38,2.19,5.06,5.57,5.06,10.16,0,6.01-2.4,10.56-7.2,13.63-2.6,1.69-5.71,2.53-9.35,2.53-2.29,0-4.26-.35-5.91-1.04-1.82,7.4-2.92,13.33-3.31,17.78-2.55.74-5.39,1.1-8.5,1.1-.74,0-1.28-.07-1.62-.2.22-2.73,1.44-8.39,3.67-17,2.23-8.61,3.34-14.21,3.34-16.81Z"
        style="fill: #fff;" />
</svg>
