<?xml version="1.0" encoding="UTF-8"?>
<svg id="_图层_1" xmlns="http://www.w3.org/2000/svg" xmlns:xlink="http://www.w3.org/1999/xlink" version="1.1" viewBox="0 0 1024 1024">
  <!-- Generator: Adobe Illustrator 29.1.0, SVG Export Plug-In . SVG Version: 2.1.0 Build 142)  -->
  <defs>
    <style>
      .st0 {
        fill: url(#_未命名的渐变);
      }

      .st1 {
        fill: #fff;
      }
    </style>
    <linearGradient id="_未命名的渐变" data-name="未命名的渐变" x1="-69.7" y1="-.2" x2="-58.3" y2="11.2" gradientTransform="translate(6235 -21) scale(90)" gradientUnits="userSpaceOnUse">
      <stop offset="0" stop-color="#8a2be2"/>
      <stop offset="1" stop-color="orange"/>
    </linearGradient>
  </defs>
  <rect class="st0" y="0" width="1024" height="1024"/>
  <path class="st1" d="M399.2,418.6c0-9.4-1.1-16.4-3.4-20.9s-7.1-10.9-14.6-19.5l.7-5.2c26.3-15.4,59.3-23.2,98.7-23.2s27,1.2,34.3,3.7c2.6,4.9,3.7,15.3,3.7,30.9s-11.9,71.8-35.8,168.5c10.9,4.5,23.4,6.6,37.3,6.6,23.9,0,43.6-8.2,59-24.6,15.4-16.4,25.5-34.2,30.2-53.4,4.7-19.2,7.1-39.5,7.1-60.9,0-39.4-10.6-67.8-31.8-85.6-21.1-17.8-55.4-26.5-102.7-26.5s-113.1,12.5-153.9,37.4c-40.9,24.8-61.3,51.2-61.3,78.4s5.3,25.3,16.1,34c10.7,8.8,21.8,14.6,33.3,17.7-1.9,18-8.2,36.4-18.7,55.3-19-2.6-37-12.5-54.2-29.9-17.2-17.5-25.7-40.4-25.7-68.7,0-50.8,28.4-91.6,85.2-122.6,56.8-30.8,123.1-46.3,198.7-46.3s133,12.6,171.9,37.8c38.9,25.2,58.2,64.1,58.2,116.9s-27.7,121.5-82.9,157c-29.9,19.5-65.8,29.1-107.6,29.1s-49-4-68-11.9c-20.9,85.2-33.6,153.5-38.1,204.7-29.3,8.5-62.1,12.7-97.8,12.7s-14.7-.8-18.7-2.2c2.6-31.5,16.5-96.6,42.3-195.7,25.6-99.2,38.5-163.6,38.5-193.5h-.1Z"/>
</svg>